<svg width="673" height="621" viewBox="0 0 673 621" fill="none" xmlns="http://www.w3.org/2000/svg">
<rect width="665" height="81" transform="translate(1)" fill="#C75C7E"/>
<g filter="url(#filter0_d_807_2197)">
<path d="M275.35 72.5L276.05 32H285.65L290.1 55.55L294.9 32H304.15L304.85 72.5H298.5L297.75 45.55L293.05 72.5H287.4L282.4 45.35L281.8 72.5H275.35ZM316.205 73C314.738 73 313.505 72.65 312.505 71.95C311.505 71.25 310.755 70.3667 310.255 69.3C309.755 68.2 309.505 67.0833 309.505 65.95C309.505 64.15 309.855 62.6333 310.555 61.4C311.288 60.1667 312.238 59.1333 313.405 58.3C314.572 57.4667 315.855 56.7667 317.255 56.2C318.655 55.6 320.038 55.0667 321.405 54.6V51.7C321.405 51.2 321.355 50.7667 321.255 50.4C321.155 50 320.988 49.7 320.755 49.5C320.522 49.2667 320.172 49.15 319.705 49.15C319.238 49.15 318.872 49.25 318.605 49.45C318.372 49.65 318.205 49.9333 318.105 50.3C318.005 50.6333 317.938 51.0167 317.905 51.45L317.705 53.55L310.105 53.25C310.272 49.7833 311.188 47.2333 312.855 45.6C314.555 43.9333 317.088 43.1 320.455 43.1C323.388 43.1 325.572 43.9167 327.005 45.55C328.472 47.15 329.205 49.2333 329.205 51.8V65.3C329.205 66.5 329.222 67.55 329.255 68.45C329.322 69.35 329.388 70.1333 329.455 70.8C329.555 71.4667 329.638 72.0333 329.705 72.5H322.405C322.305 71.7333 322.188 70.9 322.055 70C321.922 69.1 321.822 68.5667 321.755 68.4C321.422 69.6 320.788 70.6667 319.855 71.6C318.955 72.5333 317.738 73 316.205 73ZM319.105 67.5C319.438 67.5 319.738 67.4333 320.005 67.3C320.305 67.1667 320.572 66.9833 320.805 66.75C321.038 66.5167 321.238 66.2833 321.405 66.05V58.15C320.738 58.55 320.122 58.9667 319.555 59.4C318.988 59.8 318.505 60.25 318.105 60.75C317.705 61.25 317.388 61.8 317.155 62.4C316.955 62.9667 316.855 63.6167 316.855 64.35C316.855 65.3167 317.055 66.0833 317.455 66.65C317.855 67.2167 318.405 67.5 319.105 67.5ZM334.134 72.5V43.6H342.284V48.4C343.218 46.7333 344.151 45.4667 345.084 44.6C346.018 43.7 347.151 43.25 348.484 43.25C348.751 43.25 348.984 43.2667 349.184 43.3C349.384 43.3 349.568 43.3333 349.734 43.4V51.5C349.368 51.3333 348.951 51.2 348.484 51.1C348.051 50.9667 347.584 50.9 347.084 50.9C346.151 50.9 345.284 51.15 344.484 51.65C343.684 52.15 342.951 52.8333 342.284 53.7V72.5H334.134ZM352.375 72.5V67.25L360.325 49.55H352.975V43.6H368.825V48.55L360.775 66.55H368.925V72.5H352.375ZM382.255 73C380.188 73 378.388 72.65 376.855 71.95C375.355 71.25 374.188 70.2 373.355 68.8C372.555 67.4 372.155 65.65 372.155 63.55V52.55C372.155 50.45 372.555 48.7 373.355 47.3C374.188 45.9 375.355 44.85 376.855 44.15C378.388 43.45 380.188 43.1 382.255 43.1C384.322 43.1 386.105 43.45 387.605 44.15C389.138 44.85 390.322 45.9 391.155 47.3C391.988 48.7 392.405 50.45 392.405 52.55V63.55C392.405 65.65 391.988 67.4 391.155 68.8C390.322 70.2 389.138 71.25 387.605 71.95C386.105 72.65 384.322 73 382.255 73ZM382.305 67.6C382.838 67.6 383.255 67.4667 383.555 67.2C383.855 66.9 384.055 66.5 384.155 66C384.288 65.4667 384.355 64.8333 384.355 64.1V52C384.355 51.2667 384.288 50.65 384.155 50.15C384.055 49.6167 383.855 49.2167 383.555 48.95C383.255 48.65 382.838 48.5 382.305 48.5C381.772 48.5 381.355 48.65 381.055 48.95C380.755 49.2167 380.538 49.6167 380.405 50.15C380.272 50.65 380.205 51.2667 380.205 52V64.1C380.205 64.8333 380.272 65.4667 380.405 66C380.538 66.5 380.755 66.9 381.055 67.2C381.355 67.4667 381.772 67.6 382.305 67.6Z" fill="white"/>
</g>
<rect width="665" height="79" transform="translate(4 129)" fill="#C75C7E"/>
<path d="M32.332 156.5H43.042C45.6553 156.5 47.977 157.013 50.007 158.04C52.037 159.043 53.612 160.478 54.732 162.345C55.852 164.188 56.412 166.323 56.412 168.75C56.412 171.177 55.852 173.323 54.732 175.19C53.612 177.033 52.037 178.468 50.007 179.495C47.977 180.498 45.6553 181 43.042 181H32.332V156.5ZM42.832 177.15C44.6287 177.15 46.2037 176.812 47.557 176.135C48.9337 175.435 49.9837 174.455 50.707 173.195C51.4537 171.912 51.827 170.43 51.827 168.75C51.827 167.07 51.4537 165.6 50.707 164.34C49.9837 163.057 48.9337 162.077 47.557 161.4C46.2037 160.7 44.6287 160.35 42.832 160.35H36.882V177.15H42.832Z" fill="white"/>
<path d="M133.814 156.5H138.364V177.15H151.174V181H133.814V156.5Z" fill="white"/>
<path d="M247.581 181L247.546 164.76L239.496 178.2H237.466L229.416 164.97V181H225.076V156.5H228.821L238.551 172.74L248.106 156.5H251.851L251.886 181H247.581Z" fill="white"/>
<path d="M345.581 181L345.546 164.76L337.496 178.2H335.466L327.416 164.97V181H323.076V156.5H326.821L336.551 172.74L346.106 156.5H349.851L349.886 181H345.581Z" fill="white"/>
<path d="M432.376 181.35C430.813 181.35 429.366 181.047 428.036 180.44C426.73 179.81 425.656 178.935 424.816 177.815L427.406 174.7C428.76 176.567 430.381 177.5 432.271 177.5C434.815 177.5 436.086 175.995 436.086 172.985V160.315H427.371V156.5H440.636V172.74C440.636 175.61 439.936 177.768 438.536 179.215C437.136 180.638 435.083 181.35 432.376 181.35Z" fill="white"/>
<path d="M544.941 156.5L534.266 181H529.786L519.076 156.5H524.011L532.166 175.4L540.391 156.5H544.941Z" fill="white"/>
<path d="M629.379 181.35C627.489 181.35 625.657 181.082 623.884 180.545C622.134 180.008 620.746 179.297 619.719 178.41L621.294 174.875C622.297 175.668 623.522 176.322 624.969 176.835C626.439 177.325 627.909 177.57 629.379 177.57C631.199 177.57 632.552 177.278 633.439 176.695C634.349 176.112 634.804 175.342 634.804 174.385C634.804 173.685 634.547 173.113 634.034 172.67C633.544 172.203 632.914 171.842 632.144 171.585C631.374 171.328 630.324 171.037 628.994 170.71C627.127 170.267 625.611 169.823 624.444 169.38C623.301 168.937 622.309 168.248 621.469 167.315C620.652 166.358 620.244 165.075 620.244 163.465C620.244 162.112 620.606 160.887 621.329 159.79C622.076 158.67 623.184 157.783 624.654 157.13C626.147 156.477 627.967 156.15 630.114 156.15C631.607 156.15 633.077 156.337 634.524 156.71C635.971 157.083 637.219 157.62 638.269 158.32L636.834 161.855C635.761 161.225 634.641 160.747 633.474 160.42C632.307 160.093 631.176 159.93 630.079 159.93C628.282 159.93 626.941 160.233 626.054 160.84C625.191 161.447 624.759 162.252 624.759 163.255C624.759 163.955 625.004 164.527 625.494 164.97C626.007 165.413 626.649 165.763 627.419 166.02C628.189 166.277 629.239 166.568 630.569 166.895C632.389 167.315 633.882 167.758 635.049 168.225C636.216 168.668 637.207 169.357 638.024 170.29C638.864 171.223 639.284 172.483 639.284 174.07C639.284 175.423 638.911 176.648 638.164 177.745C637.441 178.842 636.332 179.717 634.839 180.37C633.346 181.023 631.526 181.35 629.379 181.35Z" fill="white"/>
<g filter="url(#filter1_d_807_2197)">
<rect x="4" y="201" width="665" height="412" rx="10" fill="white"/>
<path d="M209 228.5C209 224.082 212.582 220.5 217 220.5H266C270.418 220.5 274 224.082 274 228.5V277.5C274 281.918 270.418 285.5 266 285.5H217C212.582 285.5 209 281.918 209 277.5V228.5Z" fill="#8B63C3" fill-opacity="0.5"/>
<path d="M243.898 242.5V263.5H240.928V245.11H236.188V242.5H243.898Z" fill="black"/>
<path d="M304 228.5C304 224.082 307.582 220.5 312 220.5H361C365.418 220.5 369 224.082 369 228.5V277.5C369 281.918 365.418 285.5 361 285.5H312C307.582 285.5 304 281.918 304 277.5V228.5Z" fill="#8B63C3" fill-opacity="0.5"/>
<path d="M338.898 242.5V263.5H335.928V245.11H331.188V242.5H338.898Z" fill="black"/>
<path d="M399 228.5C399 224.082 402.582 220.5 407 220.5H456C460.418 220.5 464 224.082 464 228.5V277.5C464 281.918 460.418 285.5 456 285.5H407C402.582 285.5 399 281.918 399 277.5V228.5Z" fill="#8B63C3" fill-opacity="0.5"/>
<path d="M433.898 242.5V263.5H430.928V245.11H426.188V242.5H433.898Z" fill="black"/>
<path d="M494 228.5C494 224.082 497.582 220.5 502 220.5H551C555.418 220.5 559 224.082 559 228.5V277.5C559 281.918 555.418 285.5 551 285.5H502C497.582 285.5 494 281.918 494 277.5V228.5Z" fill="#8B63C3" fill-opacity="0.5"/>
<path d="M528.898 242.5V263.5H525.928V245.11H521.188V242.5H528.898Z" fill="black"/>
<path d="M589 228.5C589 224.082 592.582 220.5 597 220.5H646C650.418 220.5 654 224.082 654 228.5V277.5C654 281.918 650.418 285.5 646 285.5H597C592.582 285.5 589 281.918 589 277.5V228.5Z" fill="#8B63C3" fill-opacity="0.5"/>
<path d="M623.898 242.5V263.5H620.928V245.11H616.188V242.5H623.898Z" fill="black"/>
<path d="M19 305.5C19 301.082 22.5817 297.5 27 297.5H76C80.4183 297.5 84 301.082 84 305.5V354.5C84 358.918 80.4183 362.5 76 362.5H27C22.5817 362.5 19 358.918 19 354.5V305.5Z" fill="#8B63C3" fill-opacity="0.5"/>
<path d="M53.8982 319.5V340.5H50.9282V322.11H46.1882V319.5H53.8982Z" fill="black"/>
<path d="M114 305.5C114 301.082 117.582 297.5 122 297.5H171C175.418 297.5 179 301.082 179 305.5V354.5C179 358.918 175.418 362.5 171 362.5H122C117.582 362.5 114 358.918 114 354.5V305.5Z" fill="#8B63C3" fill-opacity="0.5"/>
<path d="M148.898 319.5V340.5H145.928V322.11H141.188V319.5H148.898Z" fill="black"/>
<path d="M209 305.5C209 301.082 212.582 297.5 217 297.5H266C270.418 297.5 274 301.082 274 305.5V354.5C274 358.918 270.418 362.5 266 362.5H217C212.582 362.5 209 358.918 209 354.5V305.5Z" fill="#8B63C3" fill-opacity="0.5"/>
<path d="M243.898 319.5V340.5H240.928V322.11H236.188V319.5H243.898Z" fill="black"/>
<path d="M304 305.5C304 301.082 307.582 297.5 312 297.5H361C365.418 297.5 369 301.082 369 305.5V354.5C369 358.918 365.418 362.5 361 362.5H312C307.582 362.5 304 358.918 304 354.5V305.5Z" fill="#8B63C3" fill-opacity="0.5"/>
<path d="M338.898 319.5V340.5H335.928V322.11H331.188V319.5H338.898Z" fill="black"/>
<path d="M399 305.5C399 301.082 402.582 297.5 407 297.5H456C460.418 297.5 464 301.082 464 305.5V354.5C464 358.918 460.418 362.5 456 362.5H407C402.582 362.5 399 358.918 399 354.5V305.5Z" fill="#8B63C3" fill-opacity="0.5"/>
<path d="M433.898 319.5V340.5H430.928V322.11H426.188V319.5H433.898Z" fill="black"/>
<path d="M494 305.5C494 301.082 497.582 297.5 502 297.5H551C555.418 297.5 559 301.082 559 305.5V354.5C559 358.918 555.418 362.5 551 362.5H502C497.582 362.5 494 358.918 494 354.5V305.5Z" fill="#8B63C3" fill-opacity="0.5"/>
<path d="M528.898 319.5V340.5H525.928V322.11H521.188V319.5H528.898Z" fill="black"/>
<path d="M589 305.5C589 301.082 592.582 297.5 597 297.5H646C650.418 297.5 654 301.082 654 305.5V354.5C654 358.918 650.418 362.5 646 362.5H597C592.582 362.5 589 358.918 589 354.5V305.5Z" fill="#8B63C3" fill-opacity="0.5"/>
<path d="M623.898 319.5V340.5H620.928V322.11H616.188V319.5H623.898Z" fill="black"/>
<path d="M19 382.5C19 378.082 22.5817 374.5 27 374.5H76C80.4183 374.5 84 378.082 84 382.5V431.5C84 435.918 80.4183 439.5 76 439.5H27C22.5817 439.5 19 435.918 19 431.5V382.5Z" fill="#8B63C3" fill-opacity="0.5"/>
<path d="M53.8982 396.5V417.5H50.9282V399.11H46.1882V396.5H53.8982Z" fill="black"/>
<path d="M114 382.5C114 378.082 117.582 374.5 122 374.5H171C175.418 374.5 179 378.082 179 382.5V431.5C179 435.918 175.418 439.5 171 439.5H122C117.582 439.5 114 435.918 114 431.5V382.5Z" fill="#8B63C3" fill-opacity="0.5"/>
<path d="M148.898 396.5V417.5H145.928V399.11H141.188V396.5H148.898Z" fill="black"/>
<path d="M209 382.5C209 378.082 212.582 374.5 217 374.5H266C270.418 374.5 274 378.082 274 382.5V431.5C274 435.918 270.418 439.5 266 439.5H217C212.582 439.5 209 435.918 209 431.5V382.5Z" fill="#8B63C3" fill-opacity="0.5"/>
<path d="M243.898 396.5V417.5H240.928V399.11H236.188V396.5H243.898Z" fill="black"/>
<path d="M304 382.5C304 378.082 307.582 374.5 312 374.5H361C365.418 374.5 369 378.082 369 382.5V431.5C369 435.918 365.418 439.5 361 439.5H312C307.582 439.5 304 435.918 304 431.5V382.5Z" fill="#8B63C3" fill-opacity="0.5"/>
<path d="M338.898 396.5V417.5H335.928V399.11H331.188V396.5H338.898Z" fill="black"/>
<path d="M399 382.5C399 378.082 402.582 374.5 407 374.5H456C460.418 374.5 464 378.082 464 382.5V431.5C464 435.918 460.418 439.5 456 439.5H407C402.582 439.5 399 435.918 399 431.5V382.5Z" fill="#8B63C3" fill-opacity="0.5"/>
<path d="M433.898 396.5V417.5H430.928V399.11H426.188V396.5H433.898Z" fill="black"/>
<path d="M494 382.5C494 378.082 497.582 374.5 502 374.5H551C555.418 374.5 559 378.082 559 382.5V431.5C559 435.918 555.418 439.5 551 439.5H502C497.582 439.5 494 435.918 494 431.5V382.5Z" fill="#8B63C3" fill-opacity="0.5"/>
<path d="M528.898 396.5V417.5H525.928V399.11H521.188V396.5H528.898Z" fill="black"/>
<path d="M589 382.5C589 378.082 592.582 374.5 597 374.5H646C650.418 374.5 654 378.082 654 382.5V431.5C654 435.918 650.418 439.5 646 439.5H597C592.582 439.5 589 435.918 589 431.5V382.5Z" fill="#8B63C3" fill-opacity="0.5"/>
<path d="M623.898 396.5V417.5H620.928V399.11H616.188V396.5H623.898Z" fill="black"/>
<path d="M19 459.5C19 455.082 22.5817 451.5 27 451.5H76C80.4183 451.5 84 455.082 84 459.5V508.5C84 512.918 80.4183 516.5 76 516.5H27C22.5817 516.5 19 512.918 19 508.5V459.5Z" fill="#8B63C3" fill-opacity="0.5"/>
<path d="M53.8982 473.5V494.5H50.9282V476.11H46.1882V473.5H53.8982Z" fill="black"/>
<path d="M114 459.5C114 455.082 117.582 451.5 122 451.5H171C175.418 451.5 179 455.082 179 459.5V508.5C179 512.918 175.418 516.5 171 516.5H122C117.582 516.5 114 512.918 114 508.5V459.5Z" fill="#8B63C3" fill-opacity="0.5"/>
<path d="M148.898 473.5V494.5H145.928V476.11H141.188V473.5H148.898Z" fill="black"/>
<path d="M209 459.5C209 455.082 212.582 451.5 217 451.5H266C270.418 451.5 274 455.082 274 459.5V508.5C274 512.918 270.418 516.5 266 516.5H217C212.582 516.5 209 512.918 209 508.5V459.5Z" fill="#8B63C3" fill-opacity="0.5"/>
<path d="M243.898 473.5V494.5H240.928V476.11H236.188V473.5H243.898Z" fill="black"/>
<path d="M304 459.5C304 455.082 307.582 451.5 312 451.5H361C365.418 451.5 369 455.082 369 459.5V508.5C369 512.918 365.418 516.5 361 516.5H312C307.582 516.5 304 512.918 304 508.5V459.5Z" fill="#8B63C3" fill-opacity="0.5"/>
<path d="M338.898 473.5V494.5H335.928V476.11H331.188V473.5H338.898Z" fill="black"/>
<path d="M399 459.5C399 455.082 402.582 451.5 407 451.5H456C460.418 451.5 464 455.082 464 459.5V508.5C464 512.918 460.418 516.5 456 516.5H407C402.582 516.5 399 512.918 399 508.5V459.5Z" fill="#8B63C3" fill-opacity="0.5"/>
<path d="M433.898 473.5V494.5H430.928V476.11H426.188V473.5H433.898Z" fill="black"/>
<path d="M494 459.5C494 455.082 497.582 451.5 502 451.5H551C555.418 451.5 559 455.082 559 459.5V508.5C559 512.918 555.418 516.5 551 516.5H502C497.582 516.5 494 512.918 494 508.5V459.5Z" fill="#8B63C3" fill-opacity="0.5"/>
<path d="M528.898 473.5V494.5H525.928V476.11H521.188V473.5H528.898Z" fill="black"/>
<path d="M589 459.5C589 455.082 592.582 451.5 597 451.5H646C650.418 451.5 654 455.082 654 459.5V508.5C654 512.918 650.418 516.5 646 516.5H597C592.582 516.5 589 512.918 589 508.5V459.5Z" fill="#8B63C3" fill-opacity="0.5"/>
<path d="M623.898 473.5V494.5H620.928V476.11H616.188V473.5H623.898Z" fill="black"/>
<path d="M19 536.5C19 532.082 22.5817 528.5 27 528.5H76C80.4183 528.5 84 532.082 84 536.5V585.5C84 589.918 80.4183 593.5 76 593.5H27C22.5817 593.5 19 589.918 19 585.5V536.5Z" fill="#8B63C3" fill-opacity="0.5"/>
<path d="M53.8982 550.5V571.5H50.9282V553.11H46.1882V550.5H53.8982Z" fill="black"/>
<path d="M114 536.5C114 532.082 117.582 528.5 122 528.5H171C175.418 528.5 179 532.082 179 536.5V585.5C179 589.918 175.418 593.5 171 593.5H122C117.582 593.5 114 589.918 114 585.5V536.5Z" fill="#8B63C3" fill-opacity="0.5"/>
<path d="M148.898 550.5V571.5H145.928V553.11H141.188V550.5H148.898Z" fill="black"/>
<path d="M209 536.5C209 532.082 212.582 528.5 217 528.5H266C270.418 528.5 274 532.082 274 536.5V585.5C274 589.918 270.418 593.5 266 593.5H217C212.582 593.5 209 589.918 209 585.5V536.5Z" fill="#8B63C3" fill-opacity="0.5"/>
<path d="M243.898 550.5V571.5H240.928V553.11H236.188V550.5H243.898Z" fill="black"/>
<path d="M304 536.5C304 532.082 307.582 528.5 312 528.5H361C365.418 528.5 369 532.082 369 536.5V585.5C369 589.918 365.418 593.5 361 593.5H312C307.582 593.5 304 589.918 304 585.5V536.5Z" fill="#8B63C3" fill-opacity="0.5"/>
<path d="M338.898 550.5V571.5H335.928V553.11H331.188V550.5H338.898Z" fill="black"/>
<path d="M399 536.5C399 532.082 402.582 528.5 407 528.5H456C460.418 528.5 464 532.082 464 536.5V585.5C464 589.918 460.418 593.5 456 593.5H407C402.582 593.5 399 589.918 399 585.5V536.5Z" fill="#8B63C3" fill-opacity="0.5"/>
<path d="M433.898 550.5V571.5H430.928V553.11H426.188V550.5H433.898Z" fill="black"/>
</g>
<defs>
<filter id="filter0_d_807_2197" x="271.35" y="32" width="125.055" height="49" filterUnits="userSpaceOnUse" color-interpolation-filters="sRGB">
<feFlood flood-opacity="0" result="BackgroundImageFix"/>
<feColorMatrix in="SourceAlpha" type="matrix" values="0 0 0 0 0 0 0 0 0 0 0 0 0 0 0 0 0 0 127 0" result="hardAlpha"/>
<feOffset dy="4"/>
<feGaussianBlur stdDeviation="2"/>
<feComposite in2="hardAlpha" operator="out"/>
<feColorMatrix type="matrix" values="0 0 0 0 0 0 0 0 0 0 0 0 0 0 0 0 0 0 0.25 0"/>
<feBlend mode="normal" in2="BackgroundImageFix" result="effect1_dropShadow_807_2197"/>
<feBlend mode="normal" in="SourceGraphic" in2="effect1_dropShadow_807_2197" result="shape"/>
</filter>
<filter id="filter1_d_807_2197" x="0" y="201" width="673" height="420" filterUnits="userSpaceOnUse" color-interpolation-filters="sRGB">
<feFlood flood-opacity="0" result="BackgroundImageFix"/>
<feColorMatrix in="SourceAlpha" type="matrix" values="0 0 0 0 0 0 0 0 0 0 0 0 0 0 0 0 0 0 127 0" result="hardAlpha"/>
<feOffset dy="4"/>
<feGaussianBlur stdDeviation="2"/>
<feComposite in2="hardAlpha" operator="out"/>
<feColorMatrix type="matrix" values="0 0 0 0 1 0 0 0 0 1 0 0 0 0 1 0 0 0 0.25 0"/>
<feBlend mode="normal" in2="BackgroundImageFix" result="effect1_dropShadow_807_2197"/>
<feBlend mode="normal" in="SourceGraphic" in2="effect1_dropShadow_807_2197" result="shape"/>
</filter>
</defs>
</svg>
