<svg width="474" height="403" viewBox="0 0 420 403" fill="none" xmlns="http://www.w3.org/2000/svg">
<path d="M320.741 110.169C298.376 35.7334 317.413 5.70822 329.727 0H474V403C448.207 390.252 378.251 368.979 304.766 385.875C212.91 406.996 158.995 371.034 185.953 265.432C212.91 159.83 343.206 163.255 320.741 110.169Z" fill="#A12161" fill-opacity="0.5"/>
<path d="M67.7781 107.169C1.06336 90.3425 -4.01869 28.712 1.77962 0H474V317C406.978 299.472 387.537 220.848 383.444 195.308C379.351 169.768 386.514 127.201 335.864 88.139C285.214 49.0774 224.843 48.0758 164.984 88.139C117.097 120.19 80.2271 114.18 67.7781 107.169Z" fill="#F2ACB9" fill-opacity="0.5"/>
</svg>
