<svg width="458" height="405" viewBox="0 0 458 360" fill="none" xmlns="http://www.w3.org/2000/svg">
<path d="M146.778 294.285C169.219 369.089 150.118 399.263 137.762 405H-7V-3.05176e-05C18.8801 12.8116 89.0736 34.1898 162.807 17.2096C254.975 -4.01559 309.073 32.1246 282.024 138.251C254.975 244.377 124.237 240.935 146.778 294.285Z" fill="#A12161" fill-opacity="0.5"/>
<path d="M390.079 296.493C456.934 313.373 462.027 375.197 456.217 404H-17V86C50.163 103.583 69.6454 182.455 73.747 208.076C77.8486 233.697 70.6708 276.398 121.428 315.583C172.184 354.768 232.683 355.773 292.668 315.583C340.656 283.431 377.604 289.46 390.079 296.493Z" fill="#F2ACB9" fill-opacity="0.5"/>
</svg>
